<svg width="163" height="137" viewBox="0 0 163 137" fill="none" xmlns="http://www.w3.org/2000/svg">
<rect y="42.2946" width="139.48" height="9.02023" rx="4.51011" fill="#F6F6F6" fill-opacity="0.1"/>
<rect x="17.7533" y="26.2994" width="68.472" height="9.02023" rx="4.51011" fill="#F6F6F6" fill-opacity="0.1"/>
<rect x="11.3944" y="58.5383" width="118.498" height="9.48218" rx="4.74109" fill="#F6F6F6" fill-opacity="0.1"/>
<rect x="43.8051" y="73.8816" width="118.498" height="9.48218" rx="4.74109" fill="#F6F6F6" fill-opacity="0.1"/>
<rect x="1.2663" y="89.2164" width="118.498" height="9.48218" rx="4.74109" fill="#F6F6F6" fill-opacity="0.1"/>
<path d="M136.695 136.995C130.006 136.995 124.584 136.591 124.584 136.094C124.584 135.597 130.006 135.194 136.695 135.194C143.383 135.194 148.805 135.597 148.805 136.094C148.805 136.591 143.383 136.995 136.695 136.995Z" fill="#3F81C9"/>
<path d="M25.6317 136.995C18.9426 136.995 13.5204 136.592 13.5204 136.095C13.5204 135.597 18.9426 135.194 25.6317 135.194C32.32 135.194 37.7417 135.597 37.7417 136.095C37.7417 136.592 32.32 136.995 25.6317 136.995Z" fill="#3F81C9"/>
<path d="M81.0021 130C57.252 130 38 129.104 38 128C38 126.895 57.252 126 81.0021 126C104.749 126 124 126.895 124 128C124 129.104 104.749 130 81.0021 130Z" fill="#3F81C9"/>
<path d="M133.126 86.4392C130.395 87.6096 124.863 94.813 124.863 94.813L112.397 98.6353L112.72 101.256L127.656 98.1982C127.656 98.1982 133.566 93.0657 134.319 90.4448C135.071 87.8242 134.71 85.7604 133.126 86.4392Z" fill="#FDC069"/>
<path d="M27.0248 86.4392C29.7556 87.6096 35.2884 94.813 35.2884 94.813L47.7535 98.6353L47.4311 101.256L32.4946 98.1982C32.4946 98.1982 26.5842 93.0657 25.8322 90.4448C25.0799 87.8242 25.4405 85.7604 27.0248 86.4392Z" fill="#FDC069"/>
<path d="M38.7009 1.00017V121.782H123.231V18.1494L105.607 1.00017H38.7009Z" fill="white" stroke="#EEEEEE" stroke-width="2"/>
<rect x="44" y="26" width="19" height="7" rx="1" fill="#E3E8FF"/>
<rect x="44" y="37" width="19" height="7" rx="1" fill="#E3E8FF"/>
<rect x="44" y="48" width="19" height="7" rx="1" fill="#E3E8FF"/>
<rect x="44" y="59" width="19" height="7" rx="1" fill="#E3E8FF"/>
<rect x="44" y="70" width="19" height="7" rx="1" fill="#E3E8FF"/>
<rect x="44" y="81" width="19" height="7" rx="1" fill="#E3E8FF"/>
<rect x="68" y="26" width="48" height="7" rx="1" fill="#E3E8FF"/>
<rect x="68" y="37" width="48" height="7" rx="1" fill="#E3E8FF"/>
<rect x="68" y="48" width="48" height="7" rx="1" fill="#E3E8FF"/>
<rect x="68" y="59" width="48" height="7" rx="1" fill="#E3E8FF"/>
<rect x="68" y="70" width="48" height="7" rx="1" fill="#E3E8FF"/>
<rect x="68" y="81" width="48" height="7" rx="1" fill="#E3E8FF"/>
<path d="M103.274 -6.86646e-05L124.231 17.5402H103.42L103.274 -6.86646e-05Z" fill="#EEEEEE"/>
<path d="M21.0569 106.409L33.1393 106.389L29.7744 90.4819C29.131 87.6884 26.9944 85.8961 25.6889 86.2953L16.9539 88.8923C15.6483 89.2925 14.9585 90.7405 15.4597 92.0285L21.0569 106.409Z" fill="#F7A93B"/>
<path d="M20.5086 88.8052L22.0311 88.3393C22.504 88.1945 22.7572 87.6382 22.5966 87.097L22.0317 85.1902C21.8711 84.6483 21.3575 84.3275 20.8846 84.4717L19.3622 84.9382C18.8892 85.0823 18.636 85.6396 18.7966 86.1805L19.3619 88.0873C19.5222 88.6286 20.0357 88.9503 20.5086 88.8052Z" fill="#FDDEB2"/>
<path d="M21.0565 106.409L33.1388 106.389L33.1397 134.147H30.7453C30.7453 134.147 28.9327 120.454 28.2493 112.885H26.5893L26.6992 123.656L16.9673 132.314L15.6664 130.092L22.13 121.581C22.13 121.581 20.9109 110.579 20.9457 108.682C20.882 108.375 21.0565 106.409 21.0565 106.409Z" fill="#51415C"/>
<path d="M33.1732 134.112H30.7388V136.009H35.6762C36.0024 136.009 36.1144 135.266 35.8292 135.106L33.1732 134.112Z" fill="#343434"/>
<path d="M17.0141 132.152L15.6668 130.092L14.1114 131.142L16.8446 135.321C17.0252 135.597 17.6969 135.28 17.6701 134.95L17.0141 132.152Z" fill="#343434"/>
<path d="M17.1967 88.936L27.2317 98.7348L38.0829 101.693L37.7605 104.314L24.8609 102.789C24.8609 102.789 17.0185 95.5271 15.7927 93.0976C14.6226 90.7793 15.4776 88.936 17.1967 88.936Z" fill="#FDC069"/>
<path d="M38.082 101.693L37.7596 104.314C37.7596 104.314 41.035 104.628 41.5042 104.007C42.3817 102.848 42.4193 102.064 41.9507 101.748C41.1451 101.203 38.082 101.693 38.082 101.693Z" fill="#FDDEB2"/>
<path d="M139.094 106.409L127.011 106.389L130.376 90.4819C131.02 87.6884 133.156 85.8961 134.462 86.2953L143.197 88.8923C144.503 89.2925 145.192 90.7405 144.691 92.0285L139.094 106.409Z" fill="#F7A93B"/>
<path d="M139.642 88.8052L138.119 88.3393C137.647 88.1945 137.393 87.6382 137.554 87.097L138.119 85.1902C138.279 84.6483 138.793 84.3275 139.265 84.4717L140.788 84.9382C141.261 85.0823 141.514 85.6396 141.354 86.1805L140.789 88.0873C140.628 88.6286 140.115 88.9503 139.642 88.8052Z" fill="#FDDEB2"/>
<path d="M139.094 106.409L127.011 106.389L127.011 134.147H129.405C129.405 134.147 131.218 120.454 131.9 112.885H133.561L133.451 123.656L143.183 132.314L144.484 130.092L138.02 121.581C138.02 121.581 139.239 110.579 139.205 108.682C139.268 108.375 139.094 106.409 139.094 106.409Z" fill="#51415C"/>
<path d="M126.977 134.112H129.411V136.009H124.474C124.148 136.009 124.036 135.266 124.321 135.106L126.977 134.112Z" fill="#343434"/>
<path d="M143.136 132.153L144.484 130.092L146.039 131.142L143.306 135.321C143.126 135.597 142.454 135.28 142.481 134.95L143.136 132.153Z" fill="#343434"/>
<path d="M142.955 88.936L132.92 98.7348L122.069 101.693L122.391 104.314L135.291 102.789C135.291 102.789 143.133 95.5271 144.359 93.0976C145.529 90.7793 144.674 88.936 142.955 88.936Z" fill="#FDC069"/>
<path d="M20.5402 79.4499C22.3122 79.2498 22.8045 80.5506 23.0999 83.0521C23.3581 85.2374 23.071 86.3259 20.9341 86.3541C18.7969 86.3813 15.6172 85.2534 15.9126 82.5518C16.208 79.8501 20.5402 79.4499 20.5402 79.4499Z" fill="#FDDEB2"/>
<path d="M139.146 78.9494C137.374 78.7493 136.882 80.0501 136.586 82.5516C136.328 84.7369 136.615 85.8254 138.752 85.8536C140.889 85.8808 144.069 84.7529 143.774 82.0513C143.479 79.3497 139.146 78.9494 139.146 78.9494Z" fill="#FDDEB2"/>
<path d="M16.7868 84.8941C16.524 85.6952 13.8619 81.8025 15.6754 79.4242C17.4889 77.0459 19.5594 77.6185 20.2388 77.4024C22.1108 76.8083 21.4674 75.9759 21.7012 75.678C21.9353 75.3812 24.3957 77.5431 23.1637 79.4837C21.9939 81.3263 20.3557 80.9702 18.4837 81.1484C17.3893 81.2525 18.0739 82.2782 18.776 82.872C19.4782 83.4667 19.6535 83.7637 19.3025 84.0023C18.9514 84.24 18.5422 84.24 17.6059 83.5267C16.6699 82.8128 16.8456 84.7156 16.7868 84.8941Z" fill="#282251"/>
<path d="M137.596 79.5721C136.977 79.2247 136.455 77.4323 137.947 76.362C139.439 75.2916 141.106 76.7632 141.545 77.2538C141.904 77.655 142.828 75.8145 144.66 76.8967C146.548 78.0118 144.968 79.7506 145.056 80.0179C145.143 80.2859 147.003 80.5326 146.459 82.6042C146.109 83.9419 144.397 83.853 144.134 84.1204C143.871 84.3878 144.529 86.3058 142.774 86.5281C141.169 86.7323 140.394 85.0272 141.062 84.0316C141.732 83.0357 142.686 83.3174 142.686 82.9613C142.686 82.6042 141.282 82.4707 140.887 81.5339C140.423 80.4341 141.106 79.6615 140.668 79.5721C140.229 79.4833 139.264 80.5085 137.596 79.5721Z" fill="#69454D"/>
<path d="M136.455 83.3621C136.157 83.287 135.884 85.5474 136.938 86.0822C137.991 86.6178 140.437 86.5512 140.443 86.0943C140.448 85.6363 139.878 85.2795 138.342 84.6998C137.194 84.2667 136.982 83.4959 136.455 83.3621Z" fill="#69454D"/>
<path d="M122.068 101.693L122.391 104.314C122.391 104.314 119.115 104.628 118.646 104.007C117.769 102.848 117.731 102.064 118.199 101.748C119.005 101.203 122.068 101.693 122.068 101.693Z" fill="#FDDEB2"/>
<path fill-rule="evenodd" clip-rule="evenodd" d="M43.281 94.0992V117.611H61.7092H63.6155H88.3982H90.3046H116.994V94.0992H43.281ZM88.3982 115.823V112.249H81.3685V115.823H88.3982ZM88.3982 110.462V106.887H81.3685V110.462H88.3982ZM88.3982 105.1V101.526H81.3685V105.1H88.3982ZM88.3982 99.7384V96.164H81.3685V99.7384H88.3982ZM97.3343 115.823H90.3046V112.249H97.3343V115.823ZM97.3343 110.462H90.3046V106.887H97.3343V110.462ZM97.3343 105.1H90.3046V101.526H97.3343V105.1ZM97.3343 99.7384H90.3046V96.164H97.3343V99.7384ZM61.7092 96.164V96.0052H44.5519V96.164H44.5519V99.7384H44.5519V101.526V105.1L44.5519 106.887V110.462V112.249V115.823L44.5519 116.022H61.7092V115.823V112.249V110.462V106.887V105.1V101.526V99.7384V96.164ZM63.6155 99.7384V96.164H70.6452V99.7384H63.6155ZM63.6155 105.1V101.526H70.6452V105.1H63.6155ZM63.6155 110.462V106.887H70.6452V110.462H63.6155ZM63.6155 115.823V112.249H70.6452V115.823H63.6155ZM72.4325 115.823H79.5813V112.249H72.4325V115.823ZM72.4325 110.462H79.5813V106.887H72.4325V110.462ZM72.4325 105.1H79.5813V101.526H72.4325V105.1ZM72.4325 99.7384H79.5813V96.164H72.4325V99.7384ZM106.27 115.823H99.1215V112.249H106.27V115.823ZM106.27 110.462H99.1215V106.887H106.27V110.462ZM106.27 105.1H99.1215V101.526H106.27V105.1ZM106.27 99.7384H99.1215V96.164H106.27V99.7384ZM115.206 115.823H108.058V112.249H115.206V115.823ZM115.206 110.462H108.058V106.887H115.206V110.462ZM115.206 105.1H108.058V101.526H115.206V105.1ZM115.206 99.7384H108.058V96.164H115.206V99.7384Z" fill="#E3E8FF"/>
<path d="M53.9388 100.463V102.166C55.8387 102.441 57.3015 104.071 57.3015 106.054C57.3015 106.56 57.2007 107.037 57.0213 107.481L58.4897 108.341C58.8036 107.644 58.9829 106.869 58.9829 106.054C58.9829 103.143 56.7691 100.744 53.9388 100.463ZM53.3783 109.987C52.3378 109.987 51.3399 109.573 50.6042 108.835C49.8685 108.097 49.4551 107.097 49.4551 106.054C49.4551 104.071 50.9179 102.441 52.8179 102.166V100.463C49.982 100.744 47.7737 103.138 47.7737 106.054C47.7737 107.544 48.3642 108.973 49.4153 110.027C49.9357 110.549 50.5536 110.962 51.2335 111.245C51.9135 111.527 52.6423 111.673 53.3783 111.673C55.2278 111.673 56.87 110.768 57.89 109.375L56.4328 108.515C55.7154 109.425 54.6169 109.987 53.3783 109.987Z" fill="#FDC069"/>
<path d="M49.8093 17.5527H46.7128V14.1714H49.8093V17.5527Z" fill="#CDD5FF"/>
<path d="M54.8279 17.5527H51.4466V12.8188H54.8279V17.5527Z" fill="#FFDF8D"/>
<path d="M59.5618 17.5527H56.1804V10.79H59.5618V17.5527Z" fill="#CDD5FF"/>
<path d="M64.9719 17.5527H61.5905V12.8188H64.9719V17.5527Z" fill="#FAA47B"/>
<path d="M70.382 17.5527H67.0007V14.1714H70.382V17.5527Z" fill="#CDD5FF"/>
</svg>
